<svg xmlns="http://www.w3.org/2000/svg" viewBox="0 0 1200 675" role="img" aria-labelledby="title description"><title id="title">Controlled test market gallery</title><desc id="description">A stylised market stall with an awning and produce.</desc><rect width="1200" height="675" fill="#0b2039"/><rect y="525" width="1200" height="150" fill="#153b57"/><rect x="200" y="235" width="800" height="300" rx="12" fill="#d5ad68"/><path d="M170 230l90-125h680l90 125z" fill="#e9edf2"/><path d="M170 230h860v70H170z" fill="#d5ad68"/><path d="M270 230v70m180-70v70m180-70v70m180-70v70" stroke="#0b2039" stroke-width="15"/><rect x="275" y="345" width="650" height="135" rx="14" fill="#153b57"/><circle cx="390" cy="407" r="37" fill="#b85b44"/><circle cx="500" cy="407" r="37" fill="#52765b"/><circle cx="610" cy="407" r="37" fill="#d9a465"/><circle cx="720" cy="407" r="37" fill="#b85b44"/><circle cx="830" cy="407" r="37" fill="#52765b"/><rect x="20" y="598" width="440" height="52" rx="10" fill="#d5ad68"/><text x="240" y="631" fill="#0b2039" font-family="Arial,sans-serif" font-size="23" font-weight="700" text-anchor="middle">CONTROLLED TEST MARKET</text></svg>